inDegrees=yes
name=ik_S52_A06_T05
DataType=double
version=3
OpenSimVersion=4.3-2021-08-27-4bc7ad9
endheader
time	pelvis_tilt	pelvis_list	pelvis_rotation	pelvis_tx	pelvis_ty	pelvis_tz	hip_flexion_r	hip_adduction_r	hip_rotation_r	knee_angle_r	knee_angle_r_beta	ankle_angle_r	subtalar_angle_r	mtp_angle_r	hip_flexion_l	hip_adduction_l	hip_rotation_l	knee_angle_l	knee_angle_l_beta	ankle_angle_l	subtalar_angle_l	mtp_angle_l	lumbar_extension	lumbar_bending	lumbar_rotation	arm_flex_r	arm_add_r	arm_rot_r	elbow_flex_r	pro_sup_r	wrist_flex_r	wrist_dev_r	arm_flex_l	arm_add_l	arm_rot_l	elbow_flex_l	pro_sup_l	wrist_flex_l	wrist_dev_l
24.59999999999956	-3.876712959552624	-0.6870983362464914	18.46763542884487	0	0.9399999999999999	0	44.33488281943568	-10.1757135275038	-10.25489858111096	54.43101665007926	0.9500004557517373	0	0	0	44.33488281943568	-10.1757135275038	-10.25489858111096	54.43101665007926	0.9500004557517373	0	0	0	-2.720131730389954	-0.7325162499189115	2.013587372781511	34.71522265723154	-9.360424309253084	-6.495062554122757	30.87168220897357	146.0504167042253	0	0	63.0970337786944	-16.09167349634417	-7.284269891552552	40.71143731996123	89.07550943195987	0	0
24.61999999999956	-3.881495372847341	-0.6960691184510107	18.44520754897627	0	0.9399999999999999	0	44.33540738504189	-10.17530221543796	-10.25449067990153	54.43132720659106	0.9500058759853817	0	0	0	44.33540738504189	-10.17530221543796	-10.25449067990153	54.43132720659106	0.9500058759853817	0	0	0	-2.728224762582202	-0.7386095296118523	2.009491061453085	34.70289862815088	-9.341821435767512	-6.50488343913914	30.8899464988848	146.0302053249243	0	0	63.11445713058944	-16.07117982492097	-7.343868400503491	40.72944366597881	89.04288570421862	0	0
24.63999999999956	-3.892840889202377	-0.7074902918772801	18.45317519625588	0	0.9399999999999999	0	44.33566970194721	-10.1750617730347	-10.25426639098857	54.43147824602185	0.9500085121207493	0	0	0	44.33566970194721	-10.1750617730347	-10.25426639098857	54.43147824602185	0.9500085121207493	0	0	0	-2.743170821741169	-0.7440700269465139	1.981621706735316	34.70851089640801	-9.340878985392829	-6.480258038040771	30.90391253764429	146.0189473250625	0	0	63.27797530475082	-16.02813906559635	-7.58339944780665	40.38878400593916	89.30760949361589	0	0
24.65999999999956	-3.910003321430936	-0.7236630131386853	18.49412047601951	0	0.9399999999999999	0	44.33620347539429	-10.174826769467	-10.25395203394554	54.43182072762121	0.9500144895522856	0	0	0	44.33620347539429	-10.174826769467	-10.25395203394554	54.43182072762121	0.9500144895522856	0	0	0	-2.765979862652722	-0.750354389765206	1.927667691555559	34.74037691831083	-9.323630920726961	-6.455582450256926	30.90696774753918	145.986964931075	0	0	63.30981828322965	-16.00451886469293	-7.691221449630088	40.26249501134421	89.86577518172693	0	0
24.67999999999956	-3.889678571564297	-0.7139801984010141	18.45282859457807	0	0.9399999999999999	0	44.33664399561772	-10.17468910739838	-10.2537266156719	54.43211294966653	0.9500195897891235	0	0	0	44.33664399561772	-10.17468910739838	-10.2537266156719	54.43211294966653	0.9500195897891235	0	0	0	-2.743923708372761	-0.7482165166482302	1.950599686141121	34.7062455015419	-9.308250888917494	-6.401314003801251	30.90316410379927	145.9797884334923	0	0	63.28292933711902	-15.94721115361057	-7.715374665926107	40.15735252949749	90.26952785985121	0	0
24.69999999999956	-3.868744977038578	-0.717478499250447	18.42277694044886	0	0.9399999999999999	0	44.33683794455137	-10.17451527359011	-10.25356324262407	54.43222688493233	0.9500215783346458	0	0	0	44.33683794455137	-10.17451527359011	-10.25356324262407	54.43222688493233	0.9500215783346458	0	0	0	-2.725000855923106	-0.7595038716319764	1.980883347020842	34.67686160073572	-9.286226558958866	-6.407302453305687	30.89976322133272	145.9712255043813	0	0	63.30530019231944	-15.89891313067854	-7.630638145385664	39.94400618729301	90.76958655215907	0	0
24.71999999999956	-3.86678985925825	-0.7036182229299449	18.39444458611795	0	0.9399999999999999	0	44.33644311541384	-10.17476140006466	-10.25384182580052	54.43199080092294	0.9500174578913706	0	0	0	44.33644311541384	-10.17476140006466	-10.25384182580052	54.43199080092294	0.9500174578913706	0	0	0	-2.718293465299783	-0.7474048594248677	1.979292864350903	34.69296464056559	-9.304040271696666	-6.381289508723349	30.88363650798814	146.0098943576078	0	0	63.29117995896218	-15.91667521850538	-7.676949561327206	39.83139807335525	90.99278787964636	0	0
24.73999999999956	-3.868568112636835	-0.7049967723631795	18.33577682835656	0	0.9399999999999999	0	44.33664300357005	-10.17457786578319	-10.25367071914334	54.43210559329763	0.9500194613962653	0	0	0	44.33664300357005	-10.17457786578319	-10.25367071914334	54.43210559329763	0.9500194613962653	0	0	0	-2.720854752121701	-0.7472224755163432	1.96619693393846	34.72204744653111	-9.239018908899215	-6.364818166265673	30.87110701374454	146.0160450859896	0	0	63.33472187566917	-15.96402281015521	-7.561279024833627	39.64473708968988	91.23233666054585	0	0
24.75999999999956	-3.867236480416479	-0.6967048572083391	18.32696307109374	0	0.9399999999999999	0	44.33614510250818	-10.17485049257977	-10.25400055743742	54.43180078171481	0.9500141414305466	0	0	0	44.33614510250818	-10.17485049257977	-10.25400055743742	54.43180078171481	0.9500141414305466	0	0	0	-2.716319750348879	-0.7405443731680927	1.968398522845538	34.72370471034954	-9.230056046042471	-6.397848361687337	30.8391111372104	146.0608893200997	0	0	63.33208173143791	-15.96160606162803	-7.584021539617701	39.6100144265499	91.23866124381404	0	0
24.77999999999956	-3.85049419209266	-0.6699051095351858	18.27608973853432	0	0.9399999999999999	0	44.33622981964579	-10.17477326229242	-10.25392837558729	54.43184977085689	0.9500149964523738	0	0	0	44.33622981964579	-10.17477326229242	-10.25392837558729	54.43184977085689	0.9500149964523738	0	0	0	-2.691956809361322	-0.721032610854459	1.984155783093083	34.68270703122743	-9.249693738619435	-6.34173944758905	30.85313870166448	146.0465063021985	0	0	63.2876198468081	-15.8621563617532	-7.330353655623362	39.60485887593066	91.18002566102929	0	0
24.79999999999956	-3.842252290114754	-0.6651730041035858	18.2631143338288	0	0.9399999999999999	0	44.33685949633266	-10.17408139219827	-10.25333019724286	54.43219758297401	0.9500210669189957	-5.002324312384163e-36	0	0	44.33685949633266	-10.17408139219827	-10.25333019724286	54.43219758297401	0.9500210669189957	-5.002324312384163e-36	0	0	-2.683307153785445	-0.7187012587204914	1.990685296120353	34.66856244507839	-9.243793225165557	-6.416776950322596	30.90353045669274	145.9964830845848	0	0	63.28875721564558	-15.8160938126386	-7.306726069465618	39.61170274091933	91.19300050253813	0	0
24.81999999999956	-3.844121089017162	-0.676118742369717	18.30654828631129	0	0.9399999999999999	0	44.33743472066098	-10.1737972020037	-10.25297340377788	54.43255880393206	0.950027371414041	0	0	0	44.33743472066098	-10.1737972020037	-10.25297340377788	54.43255880393206	0.950027371414041	0	0	0	-2.689586155680985	-0.7264772064832629	1.966090360173125	34.62863707856755	-9.214653157962688	-6.514245517979064	30.94196148384104	146.0343354275383	0	0	63.29500064732756	-15.86991448289709	-7.398774776469193	39.65312545477697	91.55925868195395	0	0
24.83999999999956	-3.844183472915564	-0.6704237910760235	18.35397293422848	0	0.9399999999999999	0	44.33768379832101	-10.17357024224218	-10.2527611012607	54.43270237815765	0.9500298772569985	0	0	0	44.33768379832101	-10.17357024224218	-10.2527611012607	54.43270237815765	0.9500298772569985	0	0	0	-2.68848332189645	-0.7190236379873874	1.93243627592839	34.62713629117223	-9.224954693043854	-6.541158555097761	30.95170693147473	146.0111569866294	0	0	63.22833154814741	-16.00410563250156	-7.457480883628458	39.79989697224375	92.11841483547701	0	0
24.85999999999956	-3.832376935649331	-0.660697016816019	18.39035178195228	0	0.9399999999999999	0	44.33789437685246	-10.17337782376797	-10.25258125911327	54.43282337173375	0.9500319889932751	0	0	0	44.33789437685246	-10.17337782376797	-10.25258125911327	54.43282337173375	0.9500319889932751	0	0	0	-2.674664020861754	-0.7124972288376329	1.917448951430593	34.61510197832434	-9.238766181331938	-6.544821536411561	30.96177269639195	145.9997191348652	0	0	63.08500791571091	-16.1605677740571	-7.44483147286607	40.01951508916359	92.17151054775192	0	0
